<svg xmlns="http://www.w3.org/2000/svg" xmlns:xlink="http://www.w3.org/1999/xlink" width="400" height="400" x="0" y="0" version="1.1" viewBox="0 0 400 400"><style type="text/css">.st0,.st1{stroke:#000}.st0{fill:#1b1464;fill-opacity:.5}.st1{fill:none;stroke-linejoin:round}.st2,.st3{fill:none;stroke:#1b1464;stroke-width:3}.st3{stroke:#000;stroke-width:2}</style><symbol id="disc" viewBox="-17.9 -17.9 35.8 35.8"><path d="M-17.4,0c0,9.6,7.8,17.4,17.4,17.4S17.4,9.6,17.4,0S9.6-17.4,0-17.4S-17.4-9.6-17.4,0z" class="st0"/></symbol><symbol id="leaf" viewBox="-8.7 -31.9 17.4 63.9"><path d="M8.2,0C8.2-17.4,0-31.4,0-31.4S-8.2-17.4-8.2,0S0,31.4,0,31.4S8.2,17.4,8.2,0z" class="st1"/></symbol><g id="segments"><use width="17.4" height="63.9" x="-8.7" y="-31.9" transform="matrix(1 0 0 -1 146.0357 325.3095)" xlink:href="#leaf"/><use width="17.4" height="63.9" x="-8.7" y="-31.9" transform="matrix(1 0 0 -1 200.4997 356.7542)" xlink:href="#leaf"/><use width="17.4" height="63.9" x="-8.7" y="-31.9" transform="matrix(1 0 0 -1 254.9636 325.3095)" xlink:href="#leaf"/><use width="17.4" height="63.9" x="-8.7" y="-31.9" transform="matrix(1 0 0 -1 254.9636 262.42)" xlink:href="#leaf"/><use width="17.4" height="63.9" x="-8.7" y="-31.9" transform="matrix(1 0 0 -1 254.9636 199.5304)" xlink:href="#leaf"/><use width="17.4" height="63.9" x="-8.7" y="-31.9" transform="matrix(1 0 0 -1 309.4276 230.9752)" xlink:href="#leaf"/><use width="17.4" height="63.9" x="-8.7" y="-31.9" transform="matrix(1 0 0 -1 363.8915 262.42)" xlink:href="#leaf"/><use width="17.4" height="63.9" x="-8.7" y="-31.9" transform="matrix(1 0 0 -1 309.4273 168.055)" xlink:href="#leaf"/><use width="17.4" height="63.9" x="-8.7" y="-31.9" transform="matrix(1 0 0 -1 309.4273 105.1655)" xlink:href="#leaf"/><use width="17.4" height="63.9" x="-8.7" y="-31.9" transform="matrix(1 0 0 -1 309.4276 293.8647)" xlink:href="#leaf"/><use width="17.4" height="63.9" x="-8.7" y="-31.9" transform="matrix(1 0 0 -1 363.8915 199.5304)" xlink:href="#leaf"/><use width="17.4" height="63.9" x="-8.7" y="-31.9" transform="matrix(1 0 0 -1 363.8915 136.6409)" xlink:href="#leaf"/><use width="17.4" height="63.9" x="-8.7" y="-31.9" transform="matrix(1 0 0 -1 254.9633 136.6102)" xlink:href="#leaf"/><use width="17.4" height="63.9" x="-8.7" y="-31.9" transform="matrix(1 0 0 -1 254.9633 73.7207)" xlink:href="#leaf"/><use width="17.4" height="63.9" x="-8.7" y="-31.9" transform="matrix(1 0 0 -1 200.4994 293.8341)" xlink:href="#leaf"/><use width="17.4" height="63.9" x="-8.7" y="-31.9" transform="matrix(1 0 0 -1 200.4994 230.9445)" xlink:href="#leaf"/><use width="17.4" height="63.9" x="-8.7" y="-31.9" transform="matrix(1 0 0 -1 200.4994 168.055)" xlink:href="#leaf"/><use width="17.4" height="63.9" x="-8.7" y="-31.9" transform="matrix(1 0 0 -1 200.4994 105.1655)" xlink:href="#leaf"/><use width="17.4" height="63.9" x="-8.7" y="-31.9" transform="matrix(1 0 0 -1 200.4994 42.2759)" xlink:href="#leaf"/><use width="17.4" height="63.9" x="-8.7" y="-31.9" transform="matrix(1 0 0 -1 146.0357 262.4479)" xlink:href="#leaf"/><use width="17.4" height="63.9" x="-8.7" y="-31.9" transform="matrix(1 0 0 -1 146.0357 199.5666)" xlink:href="#leaf"/><use width="17.4" height="63.9" x="-8.7" y="-31.9" transform="matrix(1 0 0 -1 146.0357 136.5294)" xlink:href="#leaf"/><use width="17.4" height="63.9" x="-8.7" y="-31.9" transform="matrix(1 0 0 -1 146.0357 73.6399)" xlink:href="#leaf"/><use width="17.4" height="63.9" x="-8.7" y="-31.9" transform="matrix(0.5 0.866 0.866 -0.5 64.34 278.1115)" xlink:href="#leaf"/><use width="17.4" height="63.9" x="-8.7" y="-31.9" transform="matrix(0.5 0.866 0.866 -0.5 118.8039 309.5563)" xlink:href="#leaf"/><use width="17.4" height="63.9" x="-8.7" y="-31.9" transform="matrix(0.5 0.866 0.866 -0.5 173.2681 278.1422)" xlink:href="#leaf"/><use width="17.4" height="63.9" x="-8.7" y="-31.9" transform="matrix(0.5 0.866 0.866 -0.5 227.7318 246.6667)" xlink:href="#leaf"/><use width="17.4" height="63.9" x="-8.7" y="-31.9" transform="matrix(0.5 0.866 0.866 -0.5 282.196 215.2526)" xlink:href="#leaf"/><use width="17.4" height="63.9" x="-8.7" y="-31.9" transform="matrix(0.5 0.866 0.866 -0.5 336.482 183.7772)" xlink:href="#leaf"/><use width="17.4" height="63.9" x="-8.7" y="-31.9" transform="matrix(0.5 0.866 0.866 -0.5 227.732 309.5869)" xlink:href="#leaf"/><use width="17.4" height="63.9" x="-8.7" y="-31.9" transform="matrix(0.5 0.866 0.866 -0.5 282.196 278.1422)" xlink:href="#leaf"/><use width="17.4" height="63.9" x="-8.7" y="-31.9" transform="matrix(0.5 0.866 0.866 -0.5 336.6599 246.6974)" xlink:href="#leaf"/><use width="17.4" height="63.9" x="-8.7" y="-31.9" transform="matrix(0.5 0.866 0.866 -0.5 282.196 341.0317)" xlink:href="#leaf"/><use width="17.4" height="63.9" x="-8.7" y="-31.9" transform="matrix(0.5 0.866 0.866 -0.5 336.6599 309.5869)" xlink:href="#leaf"/><use width="17.4" height="63.9" x="-8.7" y="-31.9" transform="matrix(0.5 0.866 0.866 -0.5 173.2681 341.0317)" xlink:href="#leaf"/><use width="17.4" height="63.9" x="-8.7" y="-31.9" transform="matrix(0.5 0.866 0.866 -0.5 227.732 372.4764)" xlink:href="#leaf"/><use width="17.4" height="63.9" x="-8.7" y="-31.9" transform="matrix(0.5 0.866 0.866 -0.5 64.34 215.2219)" xlink:href="#leaf"/><use width="17.4" height="63.9" x="-8.7" y="-31.9" transform="matrix(0.5 0.866 0.866 -0.5 64.34 152.2516)" xlink:href="#leaf"/><use width="17.4" height="63.9" x="-8.7" y="-31.9" transform="matrix(0.5 0.866 0.866 -0.5 64.34 89.3621)" xlink:href="#leaf"/><use width="17.4" height="63.9" x="-8.7" y="-31.9" transform="matrix(0.5 0.866 0.866 -0.5 118.804 57.9173)" xlink:href="#leaf"/><use width="17.4" height="63.9" x="-8.7" y="-31.9" transform="matrix(0.5 0.866 0.866 -0.5 118.804 246.6667)" xlink:href="#leaf"/><use width="17.4" height="63.9" x="-8.7" y="-31.9" transform="matrix(0.5 0.866 0.866 -0.5 173.2681 215.2805)" xlink:href="#leaf"/><use width="17.4" height="63.9" x="-8.7" y="-31.9" transform="matrix(0.5 0.866 0.866 -0.5 227.732 183.7772)" xlink:href="#leaf"/><use width="17.4" height="63.9" x="-8.7" y="-31.9" transform="matrix(0.5 0.866 0.866 -0.5 282.1957 152.3324)" xlink:href="#leaf"/><use width="17.4" height="63.9" x="-8.7" y="-31.9" transform="matrix(0.5 0.866 0.866 -0.5 336.6596 120.8877)" xlink:href="#leaf"/><use width="17.4" height="63.9" x="-8.7" y="-31.9" transform="matrix(1 0 0 -1 91.5716 293.8341)" xlink:href="#leaf"/><use width="17.4" height="63.9" x="-8.7" y="-31.9" transform="matrix(1 0 0 -1 37.1077 262.3893)" xlink:href="#leaf"/><use width="17.4" height="63.9" x="-8.7" y="-31.9" transform="matrix(1 0 0 -1 37.1077 199.4998)" xlink:href="#leaf"/><use width="17.4" height="63.9" x="-8.7" y="-31.9" transform="matrix(1 0 0 -1 37.1077 136.5294)" xlink:href="#leaf"/><use width="17.4" height="63.9" x="-8.7" y="-31.9" transform="matrix(1 0 0 -1 91.5716 230.9445)" xlink:href="#leaf"/><use width="17.4" height="63.9" x="-8.7" y="-31.9" transform="matrix(1 0 0 -1 91.5716 168.0549)" xlink:href="#leaf"/><use width="17.4" height="63.9" x="-8.7" y="-31.9" transform="matrix(1 0 0 -1 91.5716 105.0846)" xlink:href="#leaf"/><use width="17.4" height="63.9" x="-8.7" y="-31.9" transform="matrix(0.5 -0.866 -0.866 -0.5 118.8036 278.1121)" xlink:href="#leaf"/><use width="17.4" height="63.9" x="-8.7" y="-31.9" transform="matrix(0.5 -0.866 -0.866 -0.5 173.2674 309.5569)" xlink:href="#leaf"/><use width="17.4" height="63.9" x="-8.7" y="-31.9" transform="matrix(0.5 -0.866 -0.866 -0.5 173.2676 246.6674)" xlink:href="#leaf"/><use width="17.4" height="63.9" x="-8.7" y="-31.9" transform="matrix(0.5 -0.866 -0.866 -0.5 227.7316 278.1428)" xlink:href="#leaf"/><use width="17.4" height="63.9" x="-8.7" y="-31.9" transform="matrix(0.5 -0.866 -0.866 -0.5 282.1953 246.6673)" xlink:href="#leaf"/><use width="17.4" height="63.9" x="-8.7" y="-31.9" transform="matrix(0.5 -0.866 -0.866 -0.5 336.6595 215.2532)" xlink:href="#leaf"/><use width="17.4" height="63.9" x="-8.7" y="-31.9" transform="matrix(0.5 -0.866 -0.866 -0.5 336.6595 278.1428)" xlink:href="#leaf"/><use width="17.4" height="63.9" x="-8.7" y="-31.9" transform="matrix(0.5 -0.866 -0.866 -0.5 227.7316 215.2811)" xlink:href="#leaf"/><use width="17.4" height="63.9" x="-8.7" y="-31.9" transform="matrix(0.5 -0.866 -0.866 -0.5 282.1953 183.7778)" xlink:href="#leaf"/><use width="17.4" height="63.9" x="-8.7" y="-31.9" transform="matrix(0.5 -0.866 -0.866 -0.5 336.612 152.3331)" xlink:href="#leaf"/><use width="17.4" height="63.9" x="-8.7" y="-31.9" transform="matrix(0.5 -0.866 -0.866 -0.5 282.1956 309.5875)" xlink:href="#leaf"/><use width="17.4" height="63.9" x="-8.7" y="-31.9" transform="matrix(0.5 -0.866 -0.866 -0.5 227.7316 341.0323)" xlink:href="#leaf"/><use width="17.4" height="63.9" x="-8.7" y="-31.9" transform="matrix(0.5 -0.866 -0.866 -0.5 64.3396 309.5569)" xlink:href="#leaf"/><use width="17.4" height="63.9" x="-8.7" y="-31.9" transform="matrix(0.5 -0.866 -0.866 -0.5 118.8035 341.0016)" xlink:href="#leaf"/><use width="17.4" height="63.9" x="-8.7" y="-31.9" transform="matrix(0.5 -0.866 -0.866 -0.5 173.2677 372.4771)" xlink:href="#leaf"/><use width="17.4" height="63.9" x="-8.7" y="-31.9" transform="matrix(0.5 -0.866 -0.866 -0.5 118.8036 215.2225)" xlink:href="#leaf"/><use width="17.4" height="63.9" x="-8.7" y="-31.9" transform="matrix(0.5 -0.866 -0.866 -0.5 173.2674 183.7778)" xlink:href="#leaf"/><use width="17.4" height="63.9" x="-8.7" y="-31.9" transform="matrix(0.5 -0.866 -0.866 -0.5 227.7316 152.3999)" xlink:href="#leaf"/><use width="17.4" height="63.9" x="-8.7" y="-31.9" transform="matrix(0.5 -0.866 -0.866 -0.5 118.8036 152.2522)" xlink:href="#leaf"/><use width="17.4" height="63.9" x="-8.7" y="-31.9" transform="matrix(0.5 -0.866 -0.866 -0.5 118.8036 89.3627)" xlink:href="#leaf"/><use width="17.4" height="63.9" x="-8.7" y="-31.9" transform="matrix(0.5 -0.866 -0.866 -0.5 173.2677 120.9551)" xlink:href="#leaf"/><use width="17.4" height="63.9" x="-8.7" y="-31.9" transform="matrix(0.5 -0.866 -0.866 -0.5 173.2253 57.9179)" xlink:href="#leaf"/><use width="17.4" height="63.9" x="-8.7" y="-31.9" transform="matrix(0.5 -0.866 -0.866 -0.5 227.7316 26.4732)" xlink:href="#leaf"/><use width="17.4" height="63.9" x="-8.7" y="-31.9" transform="matrix(0.5 -0.866 -0.866 -0.5 227.7316 89.3627)" xlink:href="#leaf"/><use width="17.4" height="63.9" x="-8.7" y="-31.9" transform="matrix(0.5 -0.866 -0.866 -0.5 282.1953 57.9987)" xlink:href="#leaf"/><use width="17.4" height="63.9" x="-8.7" y="-31.9" transform="matrix(0.5 -0.866 -0.866 -0.5 282.1953 120.8883)" xlink:href="#leaf"/><use width="17.4" height="63.9" x="-8.7" y="-31.9" transform="matrix(0.5 -0.866 -0.866 -0.5 336.6592 89.4435)" xlink:href="#leaf"/><use width="17.4" height="63.9" x="-8.7" y="-31.9" transform="matrix(0.5 -0.866 -0.866 -0.5 64.3396 246.6673)" xlink:href="#leaf"/><use width="17.4" height="63.9" x="-8.7" y="-31.9" transform="matrix(0.5 -0.866 -0.866 -0.5 64.3396 183.7777)" xlink:href="#leaf"/><use width="17.4" height="63.9" x="-8.7" y="-31.9" transform="matrix(0.5 -0.866 -0.866 -0.5 64.3396 120.9691)" xlink:href="#leaf"/><use width="17.4" height="63.9" x="-8.7" y="-31.9" transform="matrix(0.5 0.866 0.866 -0.5 118.804 183.7771)" xlink:href="#leaf"/><use width="17.4" height="63.9" x="-8.7" y="-31.9" transform="matrix(0.5 0.866 0.866 -0.5 173.2681 152.3992)" xlink:href="#leaf"/><use width="17.4" height="63.9" x="-8.7" y="-31.9" transform="matrix(0.5 0.866 0.866 -0.5 227.7318 120.8877)" xlink:href="#leaf"/><use width="17.4" height="63.9" x="-8.7" y="-31.9" transform="matrix(0.5 0.866 0.866 -0.5 282.1957 89.4429)" xlink:href="#leaf"/><use width="17.4" height="63.9" x="-8.7" y="-31.9" transform="matrix(0.5 0.866 0.866 -0.5 118.804 120.8068)" xlink:href="#leaf"/><use width="17.4" height="63.9" x="-8.7" y="-31.9" transform="matrix(0.5 0.866 0.866 -0.5 173.2681 89.3621)" xlink:href="#leaf"/><use width="17.4" height="63.9" x="-8.7" y="-31.9" transform="matrix(0.5 0.866 0.866 -0.5 227.7318 57.9981)" xlink:href="#leaf"/><use width="17.4" height="63.9" x="-8.7" y="-31.9" transform="matrix(0.5 0.866 0.866 -0.5 173.2681 26.4726)" xlink:href="#leaf"/></g><g id="circles"><use width="35.8" height="35.8" x="-17.9" y="-17.9" transform="matrix(1 0 0 -1 200.4998 325.2791)" xlink:href="#disc"/><use width="35.8" height="35.8" x="-17.9" y="-17.9" transform="matrix(1 0 0 -1 200 262.3896)" xlink:href="#disc"/><use width="35.8" height="35.8" x="-17.9" y="-17.9" transform="matrix(1 0 0 -1 254.9637 231.0117)" xlink:href="#disc"/><use width="35.8" height="35.8" x="-17.9" y="-17.9" transform="matrix(1 0 0 -1 146.0361 230.5117)" xlink:href="#disc"/><use width="35.8" height="35.8" x="-17.9" y="-17.9" transform="matrix(1 0 0 -1 200.5 200)" xlink:href="#disc"/><use width="35.8" height="35.8" x="-17.9" y="-17.9" transform="matrix(1 0 0 -1 146.0361 167.9745)" xlink:href="#disc"/><use width="35.8" height="35.8" x="-17.9" y="-17.9" transform="matrix(1 0 0 -1 254.9637 168.1222)" xlink:href="#disc"/><use width="35.8" height="35.8" x="-17.9" y="-17.9" transform="matrix(1 0 0 -1 254.9639 105.085)" xlink:href="#disc"/><use width="35.8" height="35.8" x="-17.9" y="-17.9" transform="matrix(1 0 0 -1 146.0361 105.1964)" xlink:href="#disc"/><use width="35.8" height="35.8" x="-17.9" y="-17.9" transform="matrix(1 0 0 -1 200.5 73.721)" xlink:href="#disc"/><line x1="146" x2="146" y1="185.4" y2="213.1" class="st2"/><line x1="146" x2="146" y1="122.5" y2="150.7" class="st2"/><line x1="154.2" x2="192.3" y1="246.7" y2="309.6" class="st2"/><line x1="200" x2="200" y1="279.8" y2="307.9" class="st2"/><line x1="200" x2="200" y1="245" y2="217.4" class="st2"/><line x1="200" x2="200" y1="182.6" y2="91.1" class="st2"/><line x1="186" x2="161.7" y1="83.3" y2="98" class="st2"/><line x1="215.7" x2="239.3" y1="83.3" y2="98" class="st2"/><line x1="163.4" x2="237.6" y1="168.1" y2="168.1" class="st2"/><line x1="239.3" x2="215.7" y1="177.7" y2="191" class="st2"/><line x1="161.7" x2="186" y1="177.7" y2="191" class="st2"/><line x1="186" x2="161.7" y1="209.3" y2="223.9" class="st2"/><line x1="215.7" x2="239.3" y1="209.3" y2="223.9" class="st2"/><line x1="255" x2="255" y1="122.6" y2="150.6" class="st2"/><line x1="255" x2="255" y1="185.5" y2="213.6" class="st2"/><line x1="246.8" x2="208.7" y1="246.7" y2="309.6" class="st2"/><path d="M200,395.6C92.1,395.6,4.4,307.9,4.4,200S92.1,4.4,200,4.4S395.6,92.1,395.6,200S307.9,395.6,200,395.6z" class="st3"/><circle cx="200" cy="200" r="189.6" class="st3"/></g></svg>